<mxfile host="65bd71144e">
    <diagram id="HIP3nbAZw_EuaXWnEj3U" name="Page-1">
        <mxGraphModel dx="990" dy="760" grid="1" gridSize="10" guides="1" tooltips="1" connect="1" arrows="1" fold="1" page="1" pageScale="1" pageWidth="850" pageHeight="1100" math="0" shadow="0">
            <root>
                <mxCell id="0"/>
                <mxCell id="1" parent="0"/>
                <mxCell id="7" value="http://ics2o.mths.ca" style="swimlane;whiteSpace=wrap;html=1;" parent="1" vertex="1">
                    <mxGeometry x="45" y="40" width="760" height="480" as="geometry"/>
                </mxCell>
                <mxCell id="8" value="&lt;font style=&quot;font-size: 20px;&quot;&gt;Cookies Clicker&lt;/font&gt;" style="text;html=1;align=center;verticalAlign=middle;resizable=0;points=[];autosize=1;strokeColor=none;fillColor=none;" vertex="1" parent="7">
                    <mxGeometry x="300" y="50" width="160" height="40" as="geometry"/>
                </mxCell>
                <mxCell id="9" value="&lt;font style=&quot;font-size: 17px;&quot;&gt;Click Count : 60&lt;/font&gt;" style="text;html=1;align=center;verticalAlign=middle;resizable=0;points=[];autosize=1;strokeColor=none;fillColor=none;fontSize=20;" vertex="1" parent="7">
                    <mxGeometry x="315" y="120" width="140" height="40" as="geometry"/>
                </mxCell>
                <mxCell id="10" value="" style="shape=image;imageAspect=0;aspect=fixed;verticalLabelPosition=bottom;verticalAlign=top;fontSize=17;image=data:image/jpeg,/9j/4AAQSkZJRgABAQAAAQABAAD/4gIcSUNDX1BST0ZJTEUAAQEAAAIMbGNtcwIQAABtbnRyUkdCIFhZWiAH3AABABkAAwApADlhY3NwQVBQTAAAAAAAAAAAAAAAAAAAAAAAAAAAAAAAAAAA9tYAAQAAAADTLWxjbXMAAAAAAAAAAAAAAAAAAAAAAAAAAAAAAAAAAAAAAAAAAAAAAAAAAAAAAAAAAAAAAApkZXNjAAAA/AAAAF5jcHJ0AAABXAAAAAt3dHB0AAABaAAAABRia3B0AAABfAAAABRyWFlaAAABkAAAABRnWFlaAAABpAAAABRiWFlaAAABuAAAABRyVFJDAAABzAAAAEBnVFJDAAABzAAAAEBiVFJDAAABzAAAAEBkZXNjAAAAAAAAAANjMgAAAAAAAAAAAAAAAAAAAAAAAAAAAAAAAAAAAAAAAAAAAAAAAAAAAAAAAAAAAAAAAAAAAAAAAAAAAAAAAAAAAAAAAAAAAAAAAAAAAAAAAAAAAAB0ZXh0AAAAAEZCAABYWVogAAAAAAAA9tYAAQAAAADTLVhZWiAAAAAAAAADFgAAAzMAAAKkWFlaIAAAAAAAAG+iAAA49QAAA5BYWVogAAAAAAAAYpkAALeFAAAY2lhZWiAAAAAAAAAkoAAAD4QAALbPY3VydgAAAAAAAAAaAAAAywHJA2MFkghrC/YQPxVRGzQh8SmQMhg7kkYFUXdd7WtwegWJsZp8rGm/fdPD6TD////bAEMABQUFBQUFBQYGBQgIBwgICwoJCQoLEQwNDA0MERoQExAQExAaFxsWFRYbFykgHBwgKS8nJScvOTMzOUdER11dff/bAEMBBQUFBQUFBQYGBQgIBwgICwoJCQoLEQwNDA0MERoQExAQExAaFxsWFRYbFykgHBwgKS8nJScvOTMzOUdER11dff/AABEIAV4BXgMBIgACEQEDEQH/xAAcAAACAwEBAQEAAAAAAAAAAAAEBQIDBgcBAAj/xAA8EAACAQMDAwMCBAUDBAEEAwABAhEAAyEEEjEFQVETImEGcRQygaEHI5GxwUJS0RXh8PFiFyQzQ2OTsv/EABoBAAIDAQEAAAAAAAAAAAAAAAECAAMEBQb/xAAzEQACAgIBAwIDBwQBBQAAAAAAAQIRAyEEEjFBBVETIjJSYWJxkaGxFCNCgTRTcoLR8P/aAAwDAQACEQMRAD8A4uJMFm4/WrQARXiKPGaICDBJzXojzNEVQ4H60Zp19xx2qkSJxRmnUlj9v81EK7oKVQYFXLOfdUVAgSY7VeF+MURCduQVk/J+3xTT01ugDnA+9LrdkyCTTSz7HBnsKDehorZFdOFaIxR1uyABA/4/pRa2fVQMKIS0QQIqtysuUa2UJZBPH60Q4Ns2lFrdugE+M0WlszTC3ZBUY8UthpeYitU2njMf4q8WSYKg4EnvRNyzBwO1eqrAcxIprE6QZlMGfEeKitsLIBn57Ud6Z2tXgtjiKVsdKkW6dYE0UV4I8VTaUhgAKOVRyBStliRZohtujHanZAIzxE0p04i4v/nenhWRNVyeyyK0C7BGD347/evtsTmrdvxXu00LDQM6Akfao7RRDKZGO1Q25/WhYUinaRMT/wBqHuqYIo/AEULcEtFMmBoiqwgkVAgmZokrgY7Cvtog0bFoF2kkiKICQpx2NTVASau2wpzQbCkLzb5B4qtrYFG7RkxVbKM1LC1YAyzOKqKkH9KOYT2qjad1FPYklSF1xDzFDMgBIjM02uIKEvAIJjzVqZU0Ita4tqaxOsZrl4mMxPxzWn1tw3XIgn/z+1ItRZBYY7VfDSMsnchUEMmT/kVW5CkA8cT80YyRiKoKnzVqeitrYMVP5v6D4q/Gxcdgf2qLDBMVNQSuPAopiyWivcZJnEffNQLHGZq51ImBg1RbAOQKaxGl3M5bUGcZq8TgT81WoI/pU1U7sVks30WAAz94o/Tggk/H+aHVY+9GWJ3EA9s0UB9gkKSBijLVsnaK9tIWgRR9lCrExHzzRbESI27XH9aJFrIMdqut25iaI2e4YjFI2WRjsJ0ZhQCe9NRaJIgfNK7akdu4NaDSw8A81VL3Lo7VMqW2MYphbTAxmBXgtQeKLRSAPsKWxqB3tAz7fmqFtRJim2zdGKqdAARFFMVx0AbBBEeaitvjHajCvtOOxr5bYjFRsKRTbSDzR6qI4qoLniikEgfaKVjpHttIYGKcplFpai8Z7UztSUApZMZLZAjPNewKmVHFeQMGe1KNRU/PH/FVxnirnXPHbFQAGagUiJHehto3ijGoaMz80U6A1Z7GBjtXkcxVwBIB+OK+K8Yo2LR9bXvU2UQT8VYqkDmvmBg0rYyQIQaqZecUQYqBWKiYaBHXmqVUyQKL28nvUAvuOKZCNArKOSOP70i197LKDTrVXAikA5rN3ZuOSRPM1dBeWZ8j8IUsjqSQ0E4P2pZftMrSTjz2rQOkQP8AvSfqIuuu1Z447Va5aKoxt0LHssyMQuB3HNBMhXHPzTHSXb623RsTgyMRVbWwcHzTxkmrEnBxbTFZXzVyKFCqYOB95qVy2QSIqZUiIXIA8cRVqdmeSB3QkkRzPOD+lUbBbCACMH+9HTESoA58GqXIJOJp0IzKAcf2q5QKuu6VlafFeW14E9zWO7Z0KosRcDPOYpjp7e5gIxFD2kDR/wCqbaW1BBPH/fn5qXRKCrSRGaYW0LRA/WoW7YBOJ4z/AJphbt8Cg2BI9t2qv9MblAHarkQYJFFKBbYwoMqRn/FK2OkDovGKPsko096pRB2H/uilUxMUjZYkNLcXFBnNGLa/Lg4pdpiRAjv+3mnoUMqkHsKRlvgqVTHFePbmcURtOcVLaTOO1CyULChzivAvIj4o25bgH7VQFPE0bAkVhciiLYIAx8V4FEirFAwaDYUi+2AO1GWYiIoa2ATHxRlqRMUrehktlkGZBqPGKtxP6VWYmk6o+43TL7JU3bPaox5qbAYPxXwjmKNohU3BxVIXmiXB8VCOaKAz4AYx2FTCzkeYr4AbRmrkHGKNgo+244qt/wApjnNFugCqfNDsMH9aAQRRgz/4agZkzREETUGXvFRBfcHI+Kpc7JJI4ol8AmKVai5LEA08dsrk0lYs1LF3OYFCFDOR2o/YZk1ApzNXJ0Z2rFzW+9L9RbV2BiMU9ZQARGaXXklgI7UyYqVMQ3LAHAn9qGa2ePmnbWz/AJigrlvwKdCNNiW5bE5814ye1YOYBn9KPe2TOe1Q2DaoI7CrYsomhY9uAQew/ehyC2Y/Sm1xSVgLnzQ3otwcVZaKqbKzp0uSI7UDd6cymVFO7azTG3aVoBFc/qaOr02jHpaKEgg9hTnSgSAxwBI+9NLnTlZSRQyaVrbnHb/NOppiODQVaQGMd6YWrZ2wRkULZAxIzFNbYwRQbAkStoRGKu25FSQRNWEe4YxStjpHirEUSijaKiqmIiiVQGKWyxI9tqVmMGIprproJ2kHgc/agFXjFGWhEE+BQbClQx2zEfepiM/0/WoW2BWroyaSxqKbiAgiO1BlSDxTNgIP2NY/rX1V0PpNu9v1du7fTHoW2DvuiQDGF/WknlhjjcpUizHinldQhbHyiScdv0q1RH/NcH6h9Yde6gCq6r8JbYkhLPtPaAWHun5ETWYuIGvNduLCk5kBjJwMmST4rmZPVsadQhf7HWx+jZJq8mSMf3P0P1D6m6L0kXPX1avdUN/JtQ9yV7EKYU/Jiud9X/iNrtUrWem2BpFYZuMQ9wg4AEYT7mYrAWFL72CQ6kQvKhIgSABJJ58VeumFu0Soglge088E4EGudn9Tz5Plj8i/+8nR4/pXHxPql87+/t+gPcXW6xlfUaq9qLgJBa7cZiGYQQCSZJ4PmqbF7V6S4w0+ou2nBBBtuVYECQcRkeTxTIobaqfSYvcyT2AjgcYqO+0SVZy2xoYbcBm7Ex/6rB8bJd9WzpfCx1XRGgzT/Vv1XpIWz1m83t9wu7bxBngG4CZrzV/V/wBTa8enc6zqLRQzFrba+CC1oKT9qWXNErMTpm98Ee6SsySCSMifPaqdPprRt271u5cLt7X3Ksq4wwhYGIx5q5crN018SVfmVPjYLv4Mb/JGg031h9Uadjs6xcuZAK3EW4PAywJHOa23Tf4nWmUjqnTjayAHsMLgyYkqSCAO5BNc2RAqown3OMHPHeDz+tfXLKv7txiQBggz2JBOR4Bp8XP5GJ6na+/ZVl4HFyreOKf3aO7aD65+mtey2/8AqAsNtkfiB6SkRJIZsfpWp0XUNBr1J0mtsahQJJtXFuDmOVJr8s6mwrNi2OGEEGCYgRnJqjT6rV9N1K6vQ6hrF9cW3UmZJypHAHkGt2L1aTrrh+hz8vosGm8eSS/M/XTRiKraCDXIvp7+Jiutux120EJIA1VsSJPAdRwfJX+ldYtaixqrC3tPft3bTg7bltg6sAYkFZBH2rr4eRhzq4TONm4uXjyqcP8Ay8HhjNQI7x2qf/FU3HCg1ejO0B6i5tET8TSqCznNGXpeZFVIgVjHirForlsqKjjFVlRGRmiYgkk98VFvcSScnmmTK2qAmQ5NB3hkgjtTJgBuz3+9B3l9wHxTJiUKmTvHbmhXSmly3gxQdxTxFOmK1YpdD2H3qsoWhQMwPimo07Ofy4ov8PbVBK9h8U6lRW4X3FNvTBMsxj+v6RQ2oVQ3tFMr1yZA7D7UquSTzTxd9zPOLT0QtJxTOypEYqFu0OIphbtQBFYmzqpFiJxiiBpFuTivbacUxsKZOKFjNKhHc0LWyCBxmvbe4cj4rS+mrRI+KFu6JYkeaKl7lbh7C9IogQGUxwQape29rMVO3cDHPio2FRYR3J8/0olO2KqUcUSqnzStjVokq/FGKogZ7Chx9vNE2gxRd2DUsNaCLZIAqvqHVOn9K0zajW6pLSAGJPuYjsqjLH4FYv6r+rbXRbJ02juI+vuAgcMLI7swnLeFNcU1F/Vaq8dbqrz3rpIbczCWJbt3ETgDiuby+fDC+mKuR1eH6bPkJTm+iH7s1v1B9YdT627WluPpNEVZfQWQzg9rh5M9xwKx9mzLRuG5iI2gxJMDPk17bt3b1y4JDoIDNMDIk8xMUysaX1IliZYiZwJMdsfeuBmzzyyblKz0mHBjwx6YRpFARcMybgMIAA3u4yO3zVFtmuMxcFmUtnbxt8xwKk128TcKWN6q2zazZlTBICyB8eaD0978Xqrp9NrQJB29iBgEg96oSbTfsW6uiy615GN6YuQWGDBEZBjJB7zVur1FjXagafSIb1q1JQCV3uwzIMGBGJorW6u3p2W5+LkIyE2bYU72BkySCQftX3Qm6YPVuwi3r1539PeWZFJkCTkR5Gabah1uINdVIi/UjatLZ/A3w6AW3wNqkCQAe4OOeKY6bSXk059S2hL3HYhX3j3RIJx7h3FOlh2KMwLNHBO2QMAwTj7VVcIUuqAIokkGASzcgATJPms0p3pRodJruxfaQWnNvO62VJ3Hbg5kgZ/Wll3R61b+r/D6dRbfaUckBFbucZk+O9aRlTUWy5GyAGjkgjOB58CqtPbvvdVVR3BiZJ4JgEZkHwO9CM2iPYms7L2mFwRvtyjACfepghSOY7ea8Yb1ZnkM3E95PJEZIqtU19vVdQ01opsTW6h2DGACxmOYAHmi/WvgIg6PqrjMyidKq3UJmSScFTjAarad/KBNVbPvRY2xMvKnEE44nGKEOnYKVEKFIkCY8z7sgU1Gv0N82xpGNxraiVVGlWiYaRAPkHiqLm60GHpljPaImZHwKrTknTG0+wja2w2gKSsyDBEAc4PFE9L6p1LpDXG0HUblgM4Z1QyrEcEhpB/WpavT6jbvsFWuKQ2w4Vk4KycSe1Rsqt/Ti7YbcrCTnMtkiP8AFaIZJQXVGVFUscJ6lG195sumfxK61pzbXX2LWst7odlUW7mTAIK4MeNua6loesaLrmlTVaG/vt7iGU4ZGHKsOx/vXALmjuGzuTBUjdkgETGCOf8AFXdH6zrfp3XLqrCb7dwAXrTT70Bx8g+DXT4fqU4zjHK7j/BzOZ6ZjnByxRqS/Rn6F2iKiFEkx2ofp3UdJ1fRWtXpLm+04PwysDBVh2I7ijduTntXo4yU0pRlo8xOEoNxkqYMwGRUGAzVzr7hIrzaIp0ytoFYHxQt1fcDOYo9lORVDWyxAiimJVvQtZSWHz+tSXSzBY00Wwi+4jNV3CIIAo9XsTp9wB4tyAKDuFiBIwB/ijbogHNUMgKj7Cmi9iSWhVcQGTGY4pc6mTGKdXUFLrimYBq6LM8kFWVkCmNtBxQ1peMeKPtKTyBWJs6KRals+KOtKBI+KqtgjvRdsCeO1LYaLFjiKtUDFfKp5/ar1QQcZx9qlkoEuadbinFL30hRpAPFPhFRdFbkdqibIkJkXgUSoFXXNORkVAKynNNdgSa7k171mPqz6kboelt2NMUOu1Cn09xBCKMbyO/wDzVH1J9Tr0pW0mjKvr2CzP5bSt/qY8E+BXLNQ13qFw39Vd9a87BmdzuJUDAJgAAdgOK5PP8AUI4lLHjdy/g7HA9OlllDJkjUP5E965qNbde8ASze9jcOXacw5yZ7mpD1bYtvqLV4W8bnUBgIMEAggDng8U5dQICkKMBDH+kiBGMz5okOttDNsMuJOSYXkEeT8V515ZO9HpVBJRSM9a2voXNu571vO5JY7mQiFMzAI8UWbN6xbRRaPp3trM6P+VGbIQGIJ89qnrF09x7Gptq/pX1UMgXaSQp2wRI/QcUZodSqbrWtuBdOtsegTJCEGCuASAf6Urb7oiLDp7PoixYOxFBYYgzMAA8k+aQdY6dfRlexbZplPYJaIkA4M/pW70y2Gs2nRVbcsrcglSScQZzH716qW7bztZmkyuO+DGYJquGV452hmlKNHJLV7T3CLd0FIOSFBIjz3q670656I1Fv+ZakAXEEjdEwSOCPBpv9UdJt2blzXae57bm1nSCDDd4GB8z3rL279y2JRoPBzg/BHeuxiyRywTRllFxkP9PqLn4ZUOouoyCF95jGZAPbyKZafrzWitvWWdyiALiggz5I7n7Un0V5L1xSZ9QqQoXPuj2kT3PcVB1EHDH3GPuMSJjNSeDFkVNAjOSfc0up+o9LaCfg7JuM35t8qkDJBxMn9qtHUOpdS0lx/VbRgHZa09m5tu6h2IJO8yQoHjmshdJUozLvXcDBEg7cEfrXSLNvpeq/C623YUNaUpbZAJAYZBUckdhWLPjx4Irphb9y2MpT8iRdJqOmrp7d7RIiXrz+m3rgsQDLEqCSQOzU76bfu6fqJsWybVvVaa4PS37vcglCBI9x7jtNT67e07dEu3H2etba2LZyNzMwBBEjIXIjillzXXdDrze/A22TaNiqW9RYT3EFiRJzisquSvyWX4NO6E28MotyCdo2yGGc5knuaR32BulVMjcWBYQJnEHFG9PvXdRp7F67cUFrYdxndLidpwSOeO1X6xQwtgAwCGChTvgjIIEjB8VVtPYyZnixVpQAzuBEAmPAnuDVKqFYbxtR2HAxkR+s0e2lZLzCSbbgqPuMgGf7VG5bh1DGFwYJnA8nj7GnUkg9z62W9EllZiWDATPbgYIg0g12qjUql22YVQA5HngfH3rTXRbiCA5AKljM4EQZIAAjPisx1M2L97S2ydnqXdnBJyMGPviafHt7A9IL6P1fW9B1p1VhdgBi9YZvbdUnII4BHY9q7x0LrWj6/oU1mmYCcXbcgtbYGCDH7HuK4BrLDLbJRGYKSsmSIHcVL6e+oL309r7d+w4urckX7M+1kJkjPDDse1dfgc2WGXRJ/wBv+Dl+ocCPIg5wX9xfufpJgJECqoOaq6b1DS9X0djWaR99q4JE4ZSOVI7Ed6ZC0MSK9JGcZLqj2PKyhKEnGUdoEW0zZrxl9NgOaPgCRFD3Fk/pRtsVJJgVyW/rQzIcyDRrR4odvbNFEaAXUGMVW4BAgRVt1gJoa65KgA1ZEpmBXpzS27+aDNGXCxJE0CdxJxJq5GeW+w3tCj7Y4+1B2YOY+KPtisNnRSCkUGi7Qz+lD2xwKLtQCZHxUDRaVYqQpz2q9VO0TkxXygftUxiI81Cfcfbe8V4Rx/Wrh9qi3MULIkV+Qay/1X1q30HpbX12nU3W9PTqQSN5EyQM7R3rVx/euEfxJ1x1XXrWjH5dJpgTmfdc95gdjAGay8vM8OFtd/Bt4OBZ88IvstsyNzUXNU9y5dv771xmZrhnJIzMACjEuG3ZH8vnvgCIgyDQelcwuCSpBTaCZ25JJp4unsspe4C3+2IiYgTiJ+3NeUnO5NvuetilGMUgW3cu2izXbT8AYGeIkgDH+autm5cs7w24yQNuViOI+fNBa0dR0+qstprdq5pzsF884Y5JUx47VedRb6f9RMpupb0LELfGCEuMMMWEwCYkDiosbatEcqKtXrLd4WOnW7bm7buhibZO7dBXaQODPNE2NBd1rMmnZFUsDcD3FLW1/wBwEDGeO1B27d25rdQlm2bTX7lxzg3NqkyTAkkn55ptorXT7Fy4+ntai7dLbGuNLMipggFY2yeR2pZVFaJdj1dPZSzY01u/uWzaC2yuT7RAnOD5NVXLihCfTO0DLAiZiDA5z+9Tthbii7YgKqlGVsNzySJP6dqoa/YtM1vcj3kMxhjxIkA4FZ6bGTBdYljUKbLWp9QbCckEMIziIHkVhdb9G63TqX0mqt3goMo3tbB4BOCa25uah0u2UcusBXBAhc5AEzTV7Li3buWwI3jcMcMMAxHB796tx5p4npiyipdzhb29bYLG5p7lvYQCWUgA/fiamOpXFH8y43HPfHmu0NZJRhcAcMoGQIgiZIggj+1A6TofQhqLd/8ABWp3N7WCzBwYHAI7HtWyPOVfND9Ct4vZnMLKa7qFyzb0iXbpbAIkAHvJOAK6d0P6d1el05TU6g7zDbcxnIAHcfen1vdauYtgIoMbYWIxEScGmtn0WaywuOjRB5YQBgScCRMHvWbNyZ5tJUhoxUNii707Tam0i37QvKu1vdgSDAIMgyO1Itbp7vSdTotUhe9023cQag4Z7QkALAB3DIg9q1XUlG60PS2fzCboUg7WgQAQTgnsP3pNrtPauaO/auqQlxQGglTIH5gFmDVMJOMkpdh/qVonae0znU2NwttDW0KbQBGO0g/HajmVzbGwPuziewEk5gRJz3rNi7qWHSbzW9Oqpct2buxyx9ybd5iCoPAHeaZHXWzrnt2nm4oBbaPbMAA4if1qSg12AmE29NZZrnpg7SQD7hAIHI5Br68qlgiKWhBjBgKZPGB/moHUXkVH2ACQTtJ5nAk5IHmrrly1tF+3c/JG5SAxmMYBifvS77jWBNYabiAw+VIaQRnkkUp13T7d+xbUFPVtuGD5BiMqCuRPY0/vB7hm4y/nDbIClR3BP9aRDUWrGtbRtZJ1u0XFMmHU4wTz3kcU0eq7iRtVsU211tq0Rq9feCgsttFKMeMbngkn4oBrdr+ZpwS9xR7t2DLH/UBIz/atfcVEtJv08AkAxDZYZzwI7xWc1SI2oJtkGce0AZIgL2q6E23sFJdjTfQv1Ja6J1DUaTWnbpdTt95Ji064BI7KRye2K79uBAgyDnGRFfkq5ZY7luCGgzgg8+J8cV+gfoPqx6n9P6a3cuBtRpP5Fwd9q/kJHOV7969D6ZyXJfCl4+k8/wCrcVR/vx8/UbExxVFzkH4q5oFB3rnzXaRwSq5AzQVy5yKsdzII8j7UI8sSSe80ySEbYLdkzJqhuBA7D71dcBE4qkjAHxViaKpJ0B3AeaDcZmKYXAZOeP1xQjirEypoMssVxTO1cxk0utgYxRaZIisdG+xrbYYxRdsgmAe1KkJEZo21cKn9KDCmMwRU180Ml3zRCuCBQoKLRic14e1fDNenmgFELlxLVu5ccwiKWY5MAZJgZNflPX61uo9S1utuFlfU3Wc4EAMcKOwgYmuz/wAQ+vtotGvSdOV9bWWz6zTlLRMcYnfkT9641YtWyt0bjAwSMtOBGRH/ADXD9TzpyjjXj6j0PpOBwhPLL/L6fyJ6a6LUsUukZkC20H4wIn70/sdV0Vuyb6LvvSUt2FkFmiQXP+lfJ4pau61p7t1VUBASZImBzgyDAHBqmzct3Bp/5CgW1VfU9M7nESQxHc5zFceovZ2N9jx+ktcbUarUqty9dO4lZUKTwIaceB2q/wDC3VRNJatsDcZW3W0UFChkNiSCP2onTXrt/qFqzas3Aqks0SCi8zJGPkU4tF0W4mw4cyAAdw5GfH2pJTkmrCkhYNBr7evW7/1mALwL3CGe65JlhBEEH5xWo07MxuM1orIiDkgE+YIFAaYtbV9wBIAChQZEjGIxTNRcti5ccjapBGDJgyQB5zxwaqnKUu4EkmVGzdV7RDKJYyM9szGcjzSvS2x656ncsJZuXLb2vT2SVtq0m45YSGMYHaa0frXAj7GKlSCCZJgQZk+J5oQgXFf1AqeqsYHumMZ4B+1KpNJolW7BrTs91kstuVyqjcBIJHBJOQD5oLrlzW6fpl+9o7W59NdS7cJG5Ng/NE8gfFTAbSXbli8oFu5Yi3caI3KYAI4J8GhOrdVboWm/kavTXrzki4rH1Axb8wIk8/PNW44uU4VGxZdn8xLRa/UavSaC8Ht29PqLZZUFwOyuG/IQOCRJptZtqLIdl/0kxEAnngQBPiuWaTV6TRdQbW/gYAkrbtOVKse/eSOMYradJ+odLrNX6V/SvYssZVmuAqWbBJ3QAT+9W5uPOLbjDXcEZqts0NsteBuqS24ncD2AHMzn9KZ6SySrC3afuC7EkbiMQB24+KK0+ktxba2p2bgSZMK04Bc4FMFSCEtkA5G1QDAJzJ5j5rHb8BbRTd09i8rJcKM2TuJ2tuKggn+kQOaT6/pltmuIl94BbZk7XCmJzEj5FaX8GpRjdG8soPuYcHAJMZWfillyzorT3XvMVUuQQFPYEqAzEERz8/pVnS633EUt6Mvr9Pqm9Nz1F7BAQBWti6u1DuEBSI+aT3bfV2Nu/c6oAiO1rRpogtt3ZyJLjaQ0Dmf7VqeoNpZly21iYkyJHIgiSPBrmPWdXp26YNJ6d31betK27gBFv2CHUngwDzV2Dqk+kaVVZttKr3Ue0/vZAwdioDMBjiIkHvXq6e4jXCLgIySREDuSQCSDziayPRdR+HuHRek6MQbggkgz7oIYxkHnwK02u6hp9IoW9eAuMANigEntgAYB8ihPFKM+lbGUlVhFq9bLkiDuXvAG0eMxOO9X6lNLq7ZtX7QcCSr2wd9plEFrbCGB85rAnquoZhqAQiMxAO3EDiQMSfNOuk9eN+8ttiPW3MR7cNOSOBE+DxTz42XEuoCnGWhqdK6aexpr7K/8s+letvG7bmGwArRyBzHak/oW0guwMAkCCNwIzngfc1qtTp7WqtXLN1d9rYG25IBBnM454HasPaXrPplNNdsPYsXb2nV7i7Wt+k4ALDIJjgDiq8a6lJ3Q19Oii9cGGg7pIQEZgHvPH61o/o/rFzpX1Fo1uECxrAbFyMAFj7GPAJDYk8Amsvft9TtWyrMmpGCL6mCoU8FDBOP6Uv8AVZl32223QTEGACMyDOP8Vs48niyQmpdpFOeCy4Zwa7xP1uzeaDuxMEdqr6b1LS9Y0Gn1ulfdaurI7EEYKkeRVt3OD4mvXwkpRjJeTxEouE5RfdAjAGRFUFTBzRcZEiqHExirBGBOOarZQVH6USynuPg18bRgfYUyaK5Ji1wc/b70IyEninBtDMjFDtbEwBTp0VuJVbxH3opMcUBbL4xRltieRWZmxBq8UTbj9qERhxNFWyJAFANBajFXqTECqUMRmrl7/aoQvVjA/epbsiarEYrP/VWubp3QOp6hH2P6WxDGQ1w7AQPInFJkkoQlJ+CzFGU5wivMjh/XepXfqDruu1IkIzC1YwCPTQwp+SeTSu01tGMpuEc4kkCAe+DQKvdswIlDChVwwkcg9/samL7tdCaiy6OzEDuJiSDIEV5PL1ZJzk/Oz2eKKxxhFdlEf2ANri37LjWjG6SpZuQRmQe9DdKvKV1LXriM4uENaUFVXbIBBECSe/avdOwXbadrikgMLmYknAk9yRmeKmlq+uqbV+ghtXIS+FjduB9rlTAMzBIrPpKSZY+8WN9PatJqFvWSwOYjllOCD5/xTxk3uCQN2Sw2iCTzMCceaA0otukqSjIcMccmDxJ+Yotdyh3IkyfEgRAgwQCPms8rbC2X27a+mV27Cy5EmZ7xAH9O9TtWr5tMBblZE7SQc8SIAInkniibYtBWRlYMGguuYJ7kxia+IZFIW4GRWAf/AFLEwZIBk/3pLYCNu3t1FtACrFTn2wBEE/P3FZH6s6hrtHqNLZs3giOhabbAMTujO2IA7ea31x1tBbxWcEw3In3EkyST581xP6i6meode1V1Lm6yji0hkkEJgmZ4JzjvWviY1PLbWkVyk+nRDW6jUajThH1Fy4AQYJJEgxBBoFFa2JNshT3OBH3nJoxVG02/zSIPYcRijgqraCxmT5/rNddJR7RKbFKW2BB2wWI25AweJ/xVuoCgNYXbKkyzQSxHiMA/Bq5rVyGYpI4/88UMLbDPplirAsB/6MConYGd0+i+u6XrHTrOna56eq06bXnJYFQN0wQJ5B7HmtsumA9T1PfcDFuAg3QYMJOPg89xX5d6frNT0nXWdfZuRcstK4kR3DeQe9fo7o3UtD1rR2tbZctuALycowyweZCxtxJMVgzYFCVpaYG39oPvXLQt3y52i2wJQFQdsyQS0FgJwO3aDWa1d4FSirKAPtliAoYQSoGBM/pNaRkSLFkg7HumGUkrcBDEs8YKn/d3oZbLM9lLr2iA0K6OpDMogKV5MYkd+Kx5FJ0kNjaW2ZC505igVg9vBcYJJUifI/p3pJ1HpHS21C3759UoF3neYCqdwwJH3IMGtjfs23Ngek3qEBoYFAsmAC2JJPIPNY36r9e3oL0G0ZcIzyZ5gkE4IPcjihjjJTglKmy/qUlvwYu31FfxOuYaX1b15ytlmMKigxkDmAKGFhrlz+aA5keocATP9TPmiOmppEv27V29tW6203DJKDcMkjgDv4pxqtBpNJdti3rUvJvdS1u6hzMhtxOZ813IY4w35MsptuhAwVLfpG3DYG2O8QR5FLRdOi1mmuISji7bIzkZyRnFaLVDQtY9RLjLctHY6MBLEnLHMR89qyd4Ea21dYKwBS4ciYBzHzjijk3FokHs6td6hY0atqL4KSQCxUsZOQJySY78ms3o2a9odbduGNVcv3H1CwVNssIXB5EcE81plvWtVpdK+23cs3NrcYEe4EQJB8Ui6kOoaTU6nVaWzbuaHU3bRYEQwZbYUgknHHNcWFfNHszX5iwa4xtLaO5i+0iIIOBgkY58GluoWwbrXLdpVJUhmgjjuQJj7imFv1Tpl1DgIbgchA26IOM4me/mhWt7oM7pEHGPJyDEeaZPpY72jX/w+6xc0XVf+mu5/DasEoGJhbqiQR2ExBHeu0XEJPHavzb0+7d0nUOn6hDBt6i2+4yPytIU5Bg9x3r9Mvg/pXpvS8rnhcX4keY9XwxhnhKMfqiBG33qsoM0W1Q9MsCf0rqI47pATKORXhXAEdhVzoQSIn+1felcIGKKYrWtANxTEChXwZ701bS3DVf4Ek5NOmkVuLYstIDmKJW2DGBzVKeaLUYrPZqS2SFsdhV9u0Jg1EURbx2oWGlRIKR/Srl3DtXwFWqOBFSyUjwT4rkv8T9ed3Suni57Ye9dWe87UbGcZ5rrsCuG/wARGTUfUDA7QbOltW4MkkEs5YYwRurF6hJx47rydD0yClyYX42Y5LPqKr2gSwg7S5/LxA5j7mqduobUMwthpwXMQh5ncMSO/mrrIYuBbE4IDZhZEwZ5+3AooKF3IpO8ksVWdqlhBgDEf3rzbk0qPUVslaVLeFu+pvgt6ikBgDwADE0fpbJtXGELBwiEkqsHkknJxgUJYthvc3tyc/7SeIOad2Qj+mFU+xRBOAGBkQOI+azybGWgm2twkBFgb1YmM7pgmcxHzR9pre+2hVYUBScEREiRBBB7gcVVp5O4BQyRMEAnJgTPYfvTjT6JVQtvQALOTugcTyAJ8VTe6RG0u5Xbukzb2ys85gknk8k/rz80fb0xYHKbtoYsymFkRDn3ck8V5es+2LKC6CxCqHAEk7gCwyY8CqrRe6bi3UGwtvI3L7gJG0zIbPJzUSldMrbVWj7qgazor126wWyiMS7kAbVBBIKyB8+a/OWl3n0wy9gec/0811X+IXVL6WU6aGB/EXCS6sSPTQyRBJyZEkRxFc3tFUt5EGfzZOBjGK6vDxuMXL3Km7GmlvC3cG5QyznmCPHY0WdctkXlS1buZIS4ykMoBmQJiT3maX6ZbY7k/tmKruMFZp8/3rZ5FpMlc1F8sGN1gcx4+0DFDtrLgkOqspMxHeIBEV8QSJ3AiM/96DuSSPaYEHwf0qLQWkGtdsOp/lG2TH/yE+YrW/Q1y7a+o9Fbsa020dTcvLu2q6JwpGZlv1HNYF7g2sBk8+M9q6B/DG03/WNRrL5VRbs+mjFwpzlgvJkDM9qryusc2K67H6IuLbXeUBlSTLEgqSBsBAwYjE80E98SwK3EZyYZpn3QNgPENjHegvxwJFvTlRteTulvaTkick9wKVfiDq3s2EKFLa/nLMQcQAYkTJkDvXLckwRixhZOnNxQ+nVtqEsSQHwQAIkQARzmkX1Za0V3pOtW5bAvPZlEUlSGRZUxELlfymjLmstWfXa1dCPti3skNM8AEfOPH6Uqt6X1LOoOrZ7+puKBbdjvbc+JIMAAd/NJF04+5Ylu/BwnTdQVkNu7Y9QMBtO6CD2k9x5FMH1nT0Bl7qOFyuGkzBkgggHx2onpv0h13qdy41vTDTaZdzC/c/KRMAALJP3Fa7Q/ww0QIfqHVL973Iwt2bZthl5IkhuexFdR8jHHvPYjRzrUas6hVNtgFGI7kzOT3NArLuvqbjAgRJMT2A8dq65q/wCH3QLdopaa8t053+o0qOQIMhvv3+Kzo+itJZZ7jarU3EQmFG0yAfIyI7zzSf1mFsdQbWjzofVdO9jT6O9cti5aBUW5ILKngECD/am/UNRrNLoI0xFu5qCUbe8FUIiFUmS3bFLdP9Pa3T3Lh0CXfWR1UXWAtC4LmGQHkKOSTz96K1HQ+rWLi3b+ktXXLbNxugBQomDuIG34rJP4bydUWWxcqpldu2LPTtDbdZfYxDRmWMiTiYHE1SzsoJXZKxiRxEZHOPNX6Zbv4C0upW5bvC48hs7V3SqgrMCqNQyEMVt+0yDw24seM8VX/kyxdhbeYBrh5kjceQBMCSO/9q/S/R9YvVek9P1i3A/rWULnA94EOCBAkHBjvX5jujcSxZgdxMcCQYyMzXbP4a6xrvRtTpGMnTXyVEgwl0SBEkj3TXZ9KydORw94/wAHI9XxKWGE/sy/k6D6IxJr0ovipluKrJPY16CzzTSIbVHAFTkADFVE192FFCs9cjH2qgsfNSeTNU5JOKZCsRW6MQjAoNOKLWMCO9VF4Qsc0RbHNDLwKJTk1CBII4irRVCzkxVqnioQtHNcM/iJZRfqJQTi7pLTtEyDLoPP+39a7mK4n/E1Ta61or0sd+hCEcfkuMQQRmTurD6jvjP/AEdH0x1yl/2swjaXVXh6w6kpdEkIqkDAkgiYM95q06vVW7O9+jPcuMDsuWCWQsMw4wVH9Zqqy4uBBjeW7YM8GJEZjkUba1V/1dxb3bh4Bk+R3HmvNuT8qz01ex9YsfUer0zulzRWdlonaklnbkKASQGH70RoNZ1E6DqR1pZL2kdlLrtVt1se4QTAb571dbun1Lt6W3LInJBMjGDx8miF0vT9dq31V7RD8a4KMTlXnkkMeQBz2pXki01KH6AcWnaY76ddvIlh9SQ3qqrLcEiDEkE5B+45phf1+n03p273p2UW6qzuLKAcqWYgAcYJqoNpz6FkKU9JYQBYAC4AIB4P7VV1Gzav9K1WjvgFLzoT6bbmZlIIUnImVxI4rMqcrfYkrrQ/0t/SLZuXNlt2uAcgFYgQMxtjmqzc1V+wt70Rau2CCLY27XI/1AeccfFFaUm4bSsqqxIHsK+ICwJz2pwLOmvXU2kmUDKQdkqHlQDkY5z+tGKbvZU2l4OV/W/QdZ1HTafX6ba13TIxNtYDMjciBMsNsg8ETXIDfu2i1m4pS4jFWDCGDAwVIIkEdwa/WL6O5vW4W3RbIJZNysQx9pIEg95PBrJ9a+j+jdX/ABdzUaMjWQ/80BrTIZgMQCJAxA4jgVu4/IcF0yWhW72j8/27zlT7jz3x/wCqubVL7bZz4Pz4PxRnXfpvX/T97bfuerpi0JqEB2kxMNztbPFJDcWF289oE1vjKMlcXYEwzeUfJ+f/AFU799NomOP8ftQB1Qe2JX3gxj9vmuv/AEP/AA5XVKvUuuWgxa36mn0bCFkmA10mRI/2R9/FCcowVsDkkYr6U+kb/wBSPfvXWvWNGoIW8qggvEnLGCB3IrsGl+gei9OsI2l6hf0eqT1HTXW7gF2HULtfsw4gYya6Dbs6XRFktlNtoDBAtAJkAghSAAvAn+lD3ksemypfZV9jNcZR70VpCQYIMcDtxXPyZZybd0gJpme0PR9LprlrZrr19lcNcGoZSckEkBBJJ7Acd6ylrR/VNzqd5+n3NHe6f+MvWRa1GoFt0e2oMNyBPAgED4rcvssGwlo2w7XFmVyCCSoBI/MTyfPmvrOmsdNvar+YfS1FwlwFn3PA3F7fII7RgVTCSXVqwtP7QEulbRrqLuoHpXHdZtK8qhUQDuiWwOO9c0v9U6p1HrN+x0y2XS0+zYFU73UwQQ2AB57V1g2jde7duM2wIAz7TO4KYJDcn5NZD6V6Jf6XrNdd1LC4t0soHuEAsS7CMHdj3fahCUE5ykvyQ+6o1Qd7KoItFltqrKYYAoACAxiSOMcUsX1jem6yAIuEDDbkwQ2SBH+3vTt2V7hhQGhTgltpUyWUAwT5GKUaq4pXYQW9IhPdA28hjgYOP0qqvNjJt6o9uWbmsdtxTeAcKQnAmCFGRnnz3oI2ksrfAfaWIYBQGEQcALIE+DnPeom8otqUZG3ERJhjukz3I+PmhXdLpU7IRIG4kFdswO0wPmlSsdaKL7ahQxtkKeJ2EH80SJkAjuaT3GuWwELCXuD3fPeY4nzTfXXi1uF2YQYCkMJMHGc/Has9qL7T6Yt+0wCJ7RPiBTJbHXYEJvcn3JkDMAQ2TEwSPNVOQiBAq7SBBMzBMADAg0fb1AtrcDQqyDiQIPAkRx2NC6uWE2wDmIgkR8wM/wCasXcYX3Svpn1FKbjgGTg9hNdQ/hk6NZ60qpt23bJkkTBUwDGYHnvXKL/qEKQF2gjySPgATP3NdT/hZbVdL1ohQG9W2pMEYUEgQewmup6Z/wAmH+zm+p/8Wf8Ar+TqRzn9agRg1M/aoHuf2r0x5UiwzxXjDH6VIkV80RRQjbKTE8VU2IgVYTVBYUUxWhHb7GilmhE7UUk1Wy9IJSaItySaoRaJtg5zQGLh3x2FWA14F+asCipYpJZwa4x/E4Feq9Od7h2NpSoBEqCrkkyQcmc12gQIEisD/Ejp1jWfT76pgfW0b23tsMHbccI4Jg4gyftWbmQc+PNLxs2cDIsfJxt+dfqcOtk4FuIYhhMiRMzJo+4wVtqtKrJHAiD35JBpZZKr6W10BYwd2CojIgHHxTVVGxSqg9hH5oJgjMD9K8tJHrEwuyzXVOFTMkseCMZzyO0U50otu0W1nbIE8wTiAMEik1pWbYu73flC7YIEYiYgefNGq90OtrTqbz7T+UxjmTGJPbzVMlegt+xpbT27Xps5BlyBAGCTkgRwe1L+lG/Z/F6NW9V9C0EhCwCsvtLe5iZXieKtt6q5esBXskuTI3bSFAGC08DH3q7R9I6fp7lvWKSdawm7dRyq3ZJZiyiAWMwBmlj0xTUhGnaYz0OvX1ASqKigEBXJaPtJx81rdPcNy2F04fejAyqbRKMScgggcTFZPR6HTq2oCBTbusWczLb42yWBkHx5NO7dy3bRk9dVksFS4ZJ3NtKkrOCBx+9GHTVlM+48tBlVmue224Y+ptXaEVdxIUbsdxnPmq72jDuwvpuAZlYhASYWIUCCSPPiKr0WoKsBfv22tsR6IEkyvsYQWIP2PNW3ijJdm8/pKhO1QCTDTkPyROCfFWVcSu6kKGsaMPcVgo3+pCsDtkngbsTHftWcvfR30vccm70ZN10s0I7W9xnJVt4gT/pFabVarQ9Ptsbty2AzgOzsWENwQVnI5JODVJvdOvWzfF707Vu0GhkVLQVsBiWIJBIyTk/NLDrj9M6Hck9OIh0n0b9L6PUafqNjRlXsgv6bOWXdMAFWLkxyG5rWaXWLvuC4AWu7B32gqYEmVkTM/wBKC02o0bPbfSP+JO7YdrDZhQGBZgAIOQRMUU2ld9Rai5ZDBVAsod23dkEttEAk48jzRlLI6blbBUWx1bc3msXA7MpUNwCUWCQSVgkZIg8+BQuqK25Y6FQAVUMGO4YMAkEYIzEYrzTWrtnenr+ohKKBIKsAGYiWMAZz/c0Tut3Vt2zbAEkFBtSRuIBdTEHBk96ZpyiIqjIhp10Ctae6ULIhYS5IQBsRuQwAV4PFe6rUXWRns3VS1K4WEGxQYAA4B7ntUdKWSySi7ld9x3FS5hlBkLyclTE0L1FdSbAvKxdYLC3cUSCCQQAQCY7nmg/liRJSkK72vuagqCbSKGgqihYAEBRtiPvXpW3/APjcsCyk2mAG05yoAMZyBHPAoI2bfq3rwdVEAnh2gc4PA8k88d68/EtrjbWzaT1bTBigYe3EFgRBzHP/AKqqPzW5FtV2GSWi9lXNtlggF1niMESDIHJjmluutr6RR9291B9wO0bVYGZyADj/AJo23rHJWyLTpddDbFxwG3CZgAY+2cmhdUzXFDXLYJuoH28bGOeG5MHIHNFxSV9yRb6hFduXFKG/e2MhMKeJBmDPjGT+9B29RYu+oReQsNqsYkSTJJIgidv/AIaQdc6lqFvjSWhbuWUn1N+AwGAvtPA7kVkrGs1f/Vg2klDfuH+WkbdsyYHgdjWiHGk8bm3RZ1K6Rv8AVakIGS8v5ZUQTJO3t5Hmg2unUSFtsrEEHcSSwnscGfM0DqL4W+LahzcU8bODMwSBANUtqLrA7kKXCMksAI+8RPzVSjosSPNzWy4GUeBBMBSw4MRx2ocxlRcb5HAnuJzM17qXdbdvcGO5gJVjwvAxxSg3rhui0jepMk3D7ABMkAkkEDyasjC0S6GV64VUqccRJk8yAZiBXSP4WnUXb3WrrXG9ILZG2PazMWMz5EceDXKblwruR7gABAnME95A7n54rvP8P+nN07oFu68F9bcOomADsaAknuCBu+Jrp+m43LOpeEc31TJGPGcfLN2xxUTxVbOM1E3AYE16I8uyRB4rxjCj7VEvFebhHPYUUKyDRVBHzVrMIJnvQ7HNEVim2V7kUSt20qj3Vj7eoutEtRqOx5PgVXRbZqBqrSznNWrq17DtWdRgsT8UfaOalEbdDgalj2qYuu0me1AKaIVh5qUS7Cg7GDNIvqsNc+nergIXP4Zm2jwuSf0purATSn6i9a50HrC2Y3nR3RETI2mQAJkkcVXlV45r8JbhdZsT/Ej87QwRlVBBx7gODEkEx+g7UwtqqqWGpugLbJZiRAIEnLZgTz2oZSzWCqoNrD/bJMGT8g/tR6WwNMq3Cdr2SlyRiCPB8eK8lJ06PZpWiaE6VriG1eVbpDIzZEzDCSSwwZk066ailWVADgECSSYMSCMSfFLen/iriXkvOrG04tOezAAEEg8GDkfem+lFjSR7UUyYGCOJAzxPzzVGR7oZdhtat3BBLZKiBIIYDOBk9/uaJsb7dwlrgIRiXggADsAMzQliWQjbBMGTJYr4IkRP7V9buW/UREue0E/6YIMZiIEExPJqpJO7FZotDYW6oe8qMQQT5kGIiRAMZ89qOuJaZQEtkItu2RvAiCZH5Zkjx2ms/p9R6a2baFQymELmAGZoAA7T3FE6nqfp2L112LWrKs1yQSeCSykCQfkjFPFKSoplakJOv/UY6fFkWGvPCMSWCAAndALAswPnt/Wj+m/V2i6qmj0T23ta640RAUkmNpVlgscCJyK4Zqeo6nXam/fvOS924XPJGeBJ7Cr26sA1iEIa0oUXNxLe04IJ4jtFdNcaLxJN7+0V+b6T9Ht0q3ftsNQ3r3CAgUhIJQ4ABwRnJNJetaAdR6Qq6fphF6xqLLakuwa36Nh5dFCkl5jIgzWU+kfq3WdQ1X4bXve1Fr0iFuhSXtwIyQMgdzyK33WNfaspdV9UNgZVZ2tBgEYxBDQTHIEmsXQ8M6e2Nt6KLGv6b1KyNRpbC2luBfSm16ZdWWQ0YIUgcHiidNZazbvX2ZWte4XGYyGg4J3GDJ8c1kuha0azo9rVai+i3LkBntlw4VMBIwACRIAkAZp103qV7U3iLiKLK3iEiVwVYiIYe7vnikcfnbeqD2jSHVjVpc0pRNQn8v3739o2kzkqDmeBOas/HX9jAMC0IjBJG0qVMRnPzOaCXWOxK2mC7kJsgOZgjKiIEmZiMVHSG0GCbtxRyWDhi3vWTG0EL8k8Cp1WqsXprdDLRu1wXHuXA2wqRPuHOQAIOCP0oq9qCLts27si3aH5WB3ELAAgDcfkmk1r1BqCwKmw7BoRV5IJ2kYgYn4+Kuu31uILm8byp3CCp3NgMSYz2kRU+ZKlsFJysNfV2xYa5t2khEXcTkqcqxMhp79zNYKz1K/036i6nbu6dtmvS3e0V7TuLqultdrwAw2gzkeRWv8ASN22GK3LKJK72Itl1KzBJMjAPn7VhfqXqGj6VZ0miWwrulx3V0KgoQCDG2Csz+tNBOT6ejbGSV9z3rfX20TC3aYXnuBvap4ScEmCJ/vSa51zqVyymn1AQEksdoIIDLMZJmsn07VNprjvduDYV92+W3AcDzND9Q64dVd1A01r0bJcFULFzAwJJjPmOa6OPj4scdq2K3JukHXrvoqQ18ewsWJ5InAE0t6LfD9YtvcPKMLYM5aMDGTNJ7Ca7ql/0tNaa45mSJI+7HgD5rTafo3UOjdW6KVZb3rXCoYAwrr+bPcDmaOacehxvfSGCpxZqjo9aGF70CjuwbHAnBJxH3JqjVEW7Qt3lG6cx7vkAE+PPan95blxWdAxggTGJHAA7A+KTXWtpLeFHBwpBmcxBHFciLb7mtCoWmySAnsmDidpyJkRPgUItu3au6hlCsHAKrAxIkiIkx5o+/qAwQqCsYIkRxnI5Jn7Cg7jsqiSWkmfdgnuQe/2FXpugOgJbX43U6fSqrbrt5LcAAk7zBIA754Ffq7YttLaIAqooVR2AGAK/PH0L086/wCqNAWB2WFbUMIEgIAFkmR+Yiv0S/MRXoPTIdOKUvc896tkvLGPtH+SBg1S0HEZ81djM/pVTea6qZxWVMD5qLbtor3NfFuPtRQrRQ7OsUM140S7TGaGPzimFZhLROIpjbOBSS3qFXFGJqDIg0tFloeIymJNG27oB/SkKXSQJo2yc80Kol6HQunEGrw7Yk0tQ8ZotTMZoURMMUnmTzVmGkESCOORHzVCkftVqk0Gh4vdn576loX6d1bW6Hdt9C6SkZPpsNyH5lefFFer+Hs6nV3HOyzbLhY9zMRCggYAJ71uf4hdM9bS6Pqds7bunY2nMGClw4JI7BuJ81zJWNzS6q1euHeFZCpIkscggZ/r2ry/NwfCzy9u563hZ/j8eD89pfmaTR2NUml01kSWg+oSMtcYSzEz7iT5q5vUUKrhjgbSeA0cmcSfNVnUP6VtnXaXtqWIiJYCGkSCPgVctwuSSex92Tk5IImB9650rb2bF2PlJR7bKdy4BAIkECIA7mpNu32jbu7UbDYEgxJjOD4mopbDbWt3wisvCksV3d/BA7CrLZ2MA4JZvbuaATjgCIg0r0CmF2SUY7ZYNnesxkycmAPk0L1q3dbpWuTS2/VuXLRtqqJ2Y5gA5McVKFtj1Eth9uAMETMYngg/1FXpqpuWyLQCogAgyZVokMBJz24FGL6XFrwK1bOMD1DstW7bG67BAgBLFpgADmftXSfpr+Hwvrb1vWmK2iZ/DKdrETwWEwfinljR9Cs3216aS02oRSTdYlQCRBhdwAI5k8Vf1L6h0OhTTqHV2uqSgDgqqgckgGJ7gVtnnyz6Y44dynpVbZq7i6LQ6Owmns2bI2g2ktlVERPKwSB2I5rP9X6x0XWaFtJq9RbCuwBNsywHYke6SOx7eKw+v6rp+rXidX1L07RnZZR2YEgSN5AyaTfiLHqhQQ1hXJAwpKkyJI8+aeHElJqUp0xFKtIt6ZqupWuo6HTaPUKls3CRuBIgAySCSAT2ArrGm0ws6c2gW2AEm4cMYmASMZMSO9cjS8fUF20NjBvYw4WT25II7EcVoB9YMtq1Z1WmuG+AFD21DLwJJkyAO9Dk4ZWnFaGjJVTOgXL++2PSeGH53aWbLZAMQR80qfV2LFsXEuMg4JKmII4YmAP05qzRlnsszXFdGUlnA3Cf1GZ5+a5r1LWWdX1+9b0xJsootiYgsskmFxB7gVkw4nlnV0WN9KOgWuoX7V8330/qC60gKCweRIBJBJUTivP+os4Z3tSGIX2AmADJ38gDwP1rGafV6nS2tlvVMFBJ2NDKB8HBoyz143HYXLS/kChhCqADgmCIPzV0+PlgnSsVODZthqNQpt21S2nqlgo2yIYAQMRH9orm3U+idV6z1e6gv2rYtIVaD2BMECeTGQTitF1jqXTNL0XUki5v1FojTBVJIc8Mp8DzR2h0FjpWgtpavXL92/bttfv3H3wI3BVIGFEzFVxnLFHr89o6D0pujF6n6N1ttlt/9UaHcBE9MlgTwMHP3FVr9H2toa91oNDbWVUABgZAYkiRPNby4trUYV2IXLADExyD8fFZzXXdH023fv6m45ts6hLZDKSWEmCMSKaPIzT1f7DfDitjjRW9NodAy6WxsS2p9PIVneIEkcz3nilnqa+9qdBcvXH/AJIcW9QAYsuwhmIEFjHA70ZfRvSFu3bD7V3DaDBEAgtHmrrafghh/Ub1SGeIC7hAgDJH34qlTacn5G6U0Caf8ZYa+b+r/FJuH/6yo2jIIBnNV6pmCB3LbWI5XkeScmfimVxtgCMyqxJAJ4AnggHH/NLdQi3XB3FkJgkgQQeYI7+PFBPqlbGSrSFLG3ccKwBuYMiOc89ifvQJvPc9QH/UNvzgyeO57TR2oChx7fIO0QYnMxx80FYs39ff0em0yzdv3baJ8FzAn4H7Voxx63FIWUlFSbOufwv6UVta3q90Qbs6eyuD7FO5mJ7ye3aK6syif0pZ0npVvpGh0mitMSllAu4zLEmWY+CTmBxTJpDV6rj4/hYoRPI8rJ8bNOd9ylkFUspzReM4qtu1aEzNQCw5/pVRmBntRjAZqtreAR4opitMBbBNDtzRVxCJ+1CEFWOeaZFbRyq0xxTC0xMUntuP+KZ2W4zRYUN7bHsaY2D7uaT22pjZbI+1K+4RuhJAotWECl9szFG21JigwoKU4FFKCSKrtWziaLAAjFK2OkDa7p1jqeh1Oivg+neQqYwQeQR8g8V+eOp6LU9B6jd0Wqg3rbblcICrq2AwGYB8Hiv0sprJ/Wn0sfqPQWn0xRNbpyWtFsB1IyhI48g9qw8zjrPC0vmR0uByvgZOlv5GcSOrGnss1u4zWQh3W4AKKB+ZWxgeDRI6jbVrVpfejAMQJIVSOAfms42nv/zkvoylGKXLQABVlwQe8g9qms6dnYWXWRthQVPPMGBB71wJY47T7no4yb6WuxsE6hbUXBbucHkyJM8niDU01lpgTcHOIWDgnJAmI+KyqahRLIlxrCsoe4AI3NkgBoOO8cU6ZAR02z66f/c3GbeqgsLapv3IGkZjJPFUvEk6H6vI5bUXNOtpLYf0gTuukwFgcyTgfHesjrevqr3/AMBdu7SwPuMiWXLLOYrV6dLbJqBb1b7CNsMFYgRkwAP17VgOp9HfpZV7VxrunPDkQVwDDRiM4Pem48cTlUu4s3JLQLc1GrvyXv3GB/N7zBk5J81SyAe0H9J7TOKre8qoRu57DmY4JoS5qDPtBY8frXSSS7Iob9w2CI2kH+s0Ql22qhXIn96GTpfWblv1l0d0pnjHaeOaHuaXU2XVNVp3ttG5dwjngg96ilFulKJLf2Rrd1g06hFcluTHn71sPpjptvqmnbqGsLq2+dPd9RwVdTlgQQZJ5NYDTaK/1HUW9LpU3u0zwAABJJPgV2qxbXpnT9Po7PtFtAntYncSJZgDkkxWTlZXGHSpbY8I3K2tAF09T0nTdQbl97l6zavAoiqgUDAKCJkwMVyzSXfTuW3Q5UjI5x4NdZ6zqdRc0Ot2All09wzMndtmOxJHiuR6UW2K8ccfHeaXh24zbDkq0ajVX7d2+zoCqOoZQTkFskEjn796Ff3mCBu5DcE44+fuKVNqnVzt4AGP2ojTa0O53iRB/r/zW+0kVUx90e9q+n6/T3rTgF2FoE7dygmPYSCRHxW9dbWldirFmdid7GTPYYEfeK5XY1KWLjXXYiGDLtiZBkAHkDz5rqXTb1jXaKy4929Q0kkZ8gxzjvxXM50acJJdy7E+6Z56StaYLG+SGcgkQckknJEcCk/UrOr6n06/orAsuGuB1a8zKVZDKlD57SfNPw6WUuIltglxo5baxU5iIBA7mhjLW5IQBz5kwASfn9axxk4yTXgtaTTE9vWahrWk9S2V1IsqLgnG5RBkGAT8UPc1doG4WLTtzzJ3HPM8/FH6m1cvm7b9YtiUBxJnB8j9aXtaUgO4MbZGDAjwByPtTppu6Clqim7LqpR+CPkYycGf6UObhZrgH5gucEj29pkCapusBG1ANoEf6eDyAcg0P7Vs3Ga4xeYxkkRIEiMeTVqVgK7+pRbqLE4O6YIM9we0eDW2/h7oW6h9RprRbmzokd3aRAuXF2Kseck1iuk9L1vXOo2+n6S3NxzLuw9tu2CJZs8DwM1+mejdH0XQun2tDo1IRJLMxlnduWY9yf2rrcDiuU45H2RyvUeVHHjeKP1z/ZDk8VBiP2rzdUGbgfrXeo84fSTzUCTmvpqG4eKiIRY14WwKiTzUSxgfaihWQY84oVgCcir2bmfFCu0xBpkIzidtxjNNLLCAJpJZbINNbPaiwIcW2pnpwWPPalunTcRNO9OqiD8UrY6Qws2ziTTS0qiKBQ7YBHajFY4zQbGSDVPFXA8ZoVTMURgckcUrGRcvbFTN0ARGaCa8cgGoByTJNSiWYH60+krvVLo6l0y0v4nbF+2CENwAe1gTgsOD5rkq3by3LgYEXVlSCNrAgwQR2jx2r9PK01yv69+nGQt1rQ2yEIjWW7Yj59UjiP8Acf1rl83hpp5YLf8Akdn0/nNSWLI9eGc5usHS3ZAl9wYKpkQREnwP71Za6fbW6t1dWS1pICqDENiBM4Highe2IxEe4gx8KMGAP70Rb1DKAXVSwkwSZk8me81xX1JHc0x7b1ALLaDb2gSxgEknEEd8Ube1Vv0wbtoNu3LmCCOCPt4FI9O5YqwHKmIgmDgmGiQaMtMdrFguVJVsA+7kCTMVQ1THQqP0505xdY3biGJ9pJEzggcx/aren9E6foNR61zfcKOGt7oIwZJgQT/imwts6h0Gz8qzwRODGJmiLdpm9MALIb3yNxmeQCIzTPLkqnMXojd9JbZ1ly4zQp2yDCxM9wB2Pg9qr6lp7fU9O1lkZGKkr7d21ickirke1ZYWmEMJggEGImJn96XdRZW0uoYOrlbTvtdAyKQIJAMziYnikjfWmtEfYWfS2lu6PqPVrAUMtqEa9gFgvKoCSc/Fbl1uW7YVLg2kSBALKQD5kgHxSHpOntaCw1r1LJe8UZkspgkiB7ySTPxEUbb1TMDbuMI3SJAaC2MmO1HM3PI2SCpUedRvtd6dq9NZO65ctsm4cGBESMGuS27gtttIKMJBUyDI5BPmuyW7tpQGQ7vaFPcAg44kwP3rN9Z6Ja6gv4pD6N6B7wAVccZgCD81bxsqxNqS0xZxb2jnnr2txEycR4571Za1O2dsdwfvWw0f0hogXGq1JuPtBESokn/4yf1NAdQ+nNBpQ1+3qrhRRJtKwNx5MbVmII7nMVsXJxN0iromlbRnTcuXLttLZBNwhVBMDJ7zXYOkWE0egsWQ2821hyxJyckqCIj4pP0PpOhbSl73R0slLkgElnIHuU7jmR5FaJnUWiN0nb7SBAmefvWLk5llajHwWwi1thL30vS6sEJWCGBEe6YEePNBrcAVrYCdxgAFtoiZzH270Jd1Rtq7oRBhice4AxGO3igGvWmJLe0OTEkkkT4HEfvWZR1Y6bDrzEM1xVOZ2GdwYqZM5mfvQdy8dga4VGD+YCecHzmvC1gI0OzbQTBIJgYAMcEeDSjVapRCuB6Z4U4ye+OasjFt/SG6I3tl701IBCAnBM4OQQYIik163buMGjAb/SxBIAgETHHzRd/VW8MARg8YzHcgTJrTfTH0freusup1JfTdPEkMAN14k52TwP8A5RmtvHwZMkqjEz58+PDDqnLRuP4ddKbR9Mu9QuKRc1Ri3umfSQ4IBznz3rpSXwME0GiW7Fu3atqFRFCqq4AVRAAHgVFicmvT4caxY4wXg8lnzPNlnkfkahwQTNQaZ5pSt9kIooahXiT2p2mVJ2XljnNVl6iWExNUuagS4t81EtgSaGZyI+9fF8D7UUBntxuYoYlSctFSZwZzQdx80yK2cX053EL/AORTyxAiRWZ0104/enmnunGaZkXc0VlwAKaWLgnms/bugAU0077ojxSeR12NAjzEmj7cmKV2AMSaJbUi2CFM0oRr6q2wJFDXNSXIg9qWeu7mSf8ANWScGMRRolh6t81crcj4oBGolW4zQCHKwxRAYMsEAgiI5EeKADVejYAJqUS62cm+rvo1tG9zqHSdJOmKzfsJM2yMllHdfIHFc5DCSVMkqCQTEGYwO0V+pQ3FZnrP0Z0rrNq+9vTJY1jKxS6kqpYjG9Rgg9zzXL5PAUm543X4Ts8T1LoUYZdr7X/s4RYMrCsfYRkDIngzmB8UzsaoKpLESApkkjgySQCTQfUdDruh6ttLrdObd5eCwO1xIG62RAIPn/NV2ndpmc5+ZHMeD8muLkxuLalE7cJxnFSi7Q9tuCGuge5iSSQSYmJzHP70QmoVyFLZX8uSu74J4BFJUublChfYoLEcGOMCcT2om3d227buu6ZETAO4/GaocCyw69ctszKp3cFpiCJkEzEj4ry1csIzW7jAq6lHeDI34O0iYJoL1lAPtAECZMDPIA/vNU+14IJG0BpEZM+D/iootB7nvSxqNPYNpgrG27ql2cOitgkDIn5o23dF1n3sSWbme0YkjzQF2zsa5EbIOMDAyQO39eKmitbILMRtx+bgecCPtRlUn1ASrQ5Ny+zMigJB7YJH6jI8+a+ZL9xVADMREzld33Pnx3oBbqKVL3dkqGgmQYHc/wBvFejWFgUYgKJ2kAQc55HI7zSNPwMM7TXfScuzt3xEiDnmcUD1Gzq7mnS9Z0SenZcXW3xMDBwIhT3715b1yWWgMWBlioAkQMTQ+o1uou2XsWNK91IALKSR7jjIyAO5NGMXditqhvotZfu6HT3Lit71Z2USuCYBE4AqA1DKm8kwxIAJMAk9yO3zQWmuHS6O1YvqhuICLgJkAwScnB5xXj3CBtW5ukjaWJB2nsfEdqDj8zoCLtRub24If8uMz3BAkE+SeKW6t009rddEk4nGCIx/2om9e9AqZG4GQBMNtxgHMf2pFqNStzUglizR7dwAG3uPMnsafHBt77Ebolcu2tVce0V2onuaCA5YnCAGAJ80LeI9QutkqywqjJMfHcTR/R+i9Q6vqLlnp3Ty5Cj1Gn2284lmIAJ8d6659PfQNnpF63rddqRqdSjBraLK2rZAgETlj4Paulg4uTI41GofaMXI5mLjp3K5+wp+mfoDTDT2dZ1lWuXXi6NKZCJIkC4IBZvI4HGa6isLAAAAGAOAB2FRYwDVYYZE9q72LFDFGoo83nz5M8pOTJswqtmB71FmHmqWYCrjMz5yOxoS5dZCINWM1B3SJ/SihQ+1rBME5iKKFxXUEGsw7kTBivbeua2QCalBUvc0TtH9KpZzAoNNWtxRnmrWOAZoJEbPGuCCZoZ7g815cbBzQVy4QeadIRs4zZuHzTrT3hxPesxaeSBTnSkmJosiNRp2LEQKe2GW1BbxWbt6hLKghs1Ia25cYiaSrHukaltcrYWvLd0kyTSO08xJpjbucVKoDdscW3OM0Wt0hWTsY+9KLdz+lEh8/pUYUtjJXFEo9LUeeTRKtxQaHTGCsMUQG9oMZxS5XolWJgd4FKSw+3LECmltdoFBaa2QoJFHCM0GwpAHVekdP6zpm0+tsB1glG/1oxEblPY/3rg31D9JdT+nmv3VttqNAM/iBnagMgXAuVI7mINfovzBr6sufjY863p+5t43Ly8d62vY/JI1IWD6kH/WDAiBGRnirhqGaB6kGCDzME5Hfj9q/S/VPp7ovWkZdf0+1dY59SNtwGIkOIP+KwPUv4WdPugv0/qF6w4g7L0XFJGORBFc7J6fOO4uzrY/U8UtSVHKPxALEuAQzD4AJXBlZyKut313EAbVjuREgQRIPH9q0Gs/h79T6W2Wt2dPqfaCRZuZEckBwkn471krw1WicW9VpblpwcLeQo3t5kGJj5rFPjZId4SNuPkYsn0ziw9L63HugOJUDEd2GDAOR5q/cp2ujDJk+Z7EHsPFIDduPcHpFkbaFG2QMngzxNFtc3yEBiABjHnmOfFUyx12LlKxuWKAkLOSCRg5GDPJ+K8a/bVCs7miBMRJMzPI+aT+uEtgqcifERMEnivTfsQHgrcbmIiYnvz9qCxsN0NbZtqpZVG4yGJgcd5zHPNeW7rrcBJhSJ9oAE9+IyPikI6gFYstohRII5BE8ciT5orT2up9QZX0mi1NxHkr6VtnLEHJAAOB57U6wTb0I8sI95DG5eggljtKifMx85FCjUNcLesxB2yIMCAYMAY+570Xp/p/6puEOOi6soT7RctlDEwJDEEfrWg0H8Put6y/OtVdFZyGlxcY5wIttBnvmr4cPLJ0scimfLwRVvJEw9zUNbkkmGXBJnPnOK3HQPofqPW41msb8JpHQbSQTedYkFQRABnDH+ldG6Z9G9B6XcW5b0pvXVja98i4VI7gQFB+QMVq1uRM10sHp6jvJs5XI9Ucl04lX4iHT+n6LpWlt6XR6dbVpewGWMQWY8sx7nvRRcflntNR3YGahjdMZrpKKiqRyXJyblJ2yq8pBoXdk/amDgMv6UreVY0yEZ6zYih2fJrxmH61Q7T3pits9Lgk/ehLzGYqTt80FeeTE/4pgeSNx+aX3TiQe1XXLgzS97y7is/3ooDPV1TWmGaa2OpK6gMc1nLrTQzXiqqo57n9KZJMRyaNo14MMGaBuPJzWfs9SKGCe3Jo38WlwAhpo9LQOpM5dpbaqs55o78UtsQBSYahgIBr0OTJPmaTuPsdLf3Ee40009zPPasvauGeab6e7kZqEfY09q6aY27ggGaz9m6YBmmNq5xUaImPUfFEh+M9qU27pxRK3Mj7UrGQ1tuMZoxXmKUW7hkEGjPUCxBoUNYeHOMU20iF4JHYUk0wNxx961OnQIi/YUG6GW2HLCgCasFDA1cp4pGOggGASPFRmvN3NRnvQCic81Bmr6apZs0UQmpJn7VInAFUq0HmpFsgVKsFtMz+u+jfpvqCsbnTLdt2bdvs/wApt05PtgGe881ltT/CvprgHSdV1Npv/wCULdHmBt2GK6eDivZNUS4+KfeES+HK5GPtkkcvt/wq6Ou71+p625kEbdijHkMrSau/+ln0/Efjeof/ANluf/8AFdIZq8mguNg/6Y/9ZyHv4kjOdK+jvp3pIVrPT0u3l/8A3Xv5jkzO7OAflQKfM0MRFXqfmhLxhjVsYQiqUaKZ5JzdylbLN3tE0OzDNe7pAM9qHdomrEUtk2eqy/M1Vu+ardpBokD0uBgBUi3eKWW7u0gTRfqTQoKZf6nFUXlDKSKiXEZNeBxkTRQH2FtxiCRQzvBOaM1dszIFJ3fOadFb0WM/aaCvPniptcHNB6hxkT2pkhLplNxzEzQT3BXty4RNAXLnJmikRtn125yKDu3BH6VXdu8/ehL14LaYgEtiPFOkVyZ5cuAYHH71WurZAFFUPcJGP+KpJVhBAJFOqoqZlxBjNXqcDNBo3aavUxkGqDUFoR5ozT3CGImlqt3mirJO6RxRQH2s0Fm7wJpnbu8ZrOW7hHemFq9xmo0KmaO3cMAzRav7hmkdq6cZ70Yt0eaDQ6Y5tvGZou0xuMADSRbxMAGtD02yWIYileg7ZotDZ2AMRTtWgDPaliMFgCi0cQBVbZatBytxV6nHNBoRg0RuoMK7Fu747V9I81Xuwaju7d6AyLmYgTQpaa8uXIiKo3fNFIDCVapBpbihlbPNTtsCxogfcPnjFe7uMVTur3dgZpQkyc8VGfiolpryfmoSy5WoXVQGGasDCqNUfaDRQX2K91D3W/vXm+APtULh9pM0yK2Ulx5qDPg57VQz/NVNc5z2o0LZP1CCDPei7d6ZzSc3Oa+t3trTNShkx21z5qr1IYie1CetIED4qv1DMzQRH2GJuBwZNIdUGRmM4n/3RhvEHmqtQy3LRzmmWmI9idrsTQN+9mZ7VLUHa0TnmaV3rkHntViKyVy7g5pfcvfNQu3gJJP/AJ80te8e5+aZCkr17mDVLOGUCcwPvQzuSTX27AziBTpCSZItx4qtiPNRZjmPFVs0HPeiitmYUiiFacUErcCrg0d6os10Gg8CibTRigEfgE0TbYBjNFAfYYqxxRVu5EGaXK3Aq9WIjP3oiDi1eyM0Z63AntSS3cAAmi7BNxwJ8UGhkzS6FDeYEjvW40u22gA8VmOnoLSKZp4l35qtstitDtbgwZo22wIGfFIUu8QaaWnMDNKxxur1aLnalq3Pmrhc7zQCg7dX27v8UN6mCZ7VFrkKc0KCme3LmYqG4xM0Kz7ic17uxFElhe8CSD2/erLLyTmgC4g57URYaVmoDyMQw816WOM0Nv8Ampbz3NKEtLdpqO7jNUs1R381AhSsKjfM2qpV5gk1K40o1MDwLtxj9qizyDVBcyZqBcQc0Suwa44BP3qhrmDntXmocAn70E10ZnwaZCtl3qAzLR4qk3AMzQr3RJg0O12OTTEsc29RIiambvzSFb+0/rRI1A80K2S9Bz3DExiYn5qn8T2NANfwc/NB3dQPNFIVsN1cPDA9prNaq8QxE0zXVgyG8Uj18CWB7fpToR97Art4EFZoJrgBqLOSee1Us2YmmQrZNmJBr0N7RPgUMTMgcTU93tBmmQrWiwsOKqZyDM1AvxVZO4/FERmaBMc1epmhRB7cGpqaoNTDVYeKItNk/agFNEWzk/aogNDFG4Iq8PJntQKPxjMVeGMQaYAehmAO9Pun2TIYikejXewntWntEIFgdqVvQYrY7t3AIFG273GaRo5xRNu4aRosTNFZuz3pvbuiAJ7CszYcmKZ27pgY7ClCO1ufNXi6aUJcODRC3DUoNjQXTBz2qm5d5zQouGPvNUvcJoUFMJFypi53mgA5xUw5NQPkLZ+KMtPCgUmZyXApgjewVPAE9h+85qW/jNBh69DnFQNhLPkZqO8+aGZzIqO80KCFh881dvleaXbzIonOwGe1EjdCu++1yJoc3fmq9axW6YoA3DNMkVPuXah/aTNK3uYMntV124SDSq7cIJHwaZCtlhuk8c1Q135ihmuEUO108U1AsKa7HevU1POe1LHuE1SbpB78f5qEsbPqAJz3oK5qSSwiIMfp5pe98gnmaGa6xBopCsLbUFSSG71C5eW6pBPal1x8/rQxvMrgfFNQqeyy6ArCqd27M8VO45cSaEZviimBotZhzNfSSPihtxk57VMOQB9hTJis9ZuPvVZYYINeOxjntVE5NSwH/9k=;" vertex="1" parent="7">
                    <mxGeometry x="295" y="210" width="170" height="170" as="geometry"/>
                </mxCell>
            </root>
        </mxGraphModel>
    </diagram>
</mxfile>